%TF.GenerationSoftware,KiCad,Pcbnew,10.0.1*%
%TF.CreationDate,2026-05-13T02:21:32+03:00*%
%TF.ProjectId,Asynchronous Buck Converter,4173796e-6368-4726-9f6e-6f7573204275,A*%
%TF.SameCoordinates,Original*%
%TF.FileFunction,Copper,L1,Top*%
%TF.FilePolarity,Positive*%
%FSLAX46Y46*%
G04 Gerber Fmt 4.6, Leading zero omitted, Abs format (unit mm)*
G04 Created by KiCad (PCBNEW 10.0.1) date 2026-05-13 02:21:32*
%MOMM*%
%LPD*%
G01*
G04 APERTURE LIST*
G04 Aperture macros list*
%AMRoundRect*
0 Rectangle with rounded corners*
0 $1 Rounding radius*
0 $2 $3 $4 $5 $6 $7 $8 $9 X,Y pos of 4 corners*
0 Add a 4 corners polygon primitive as box body*
4,1,4,$2,$3,$4,$5,$6,$7,$8,$9,$2,$3,0*
0 Add four circle primitives for the rounded corners*
1,1,$1+$1,$2,$3*
1,1,$1+$1,$4,$5*
1,1,$1+$1,$6,$7*
1,1,$1+$1,$8,$9*
0 Add four rect primitives between the rounded corners*
20,1,$1+$1,$2,$3,$4,$5,0*
20,1,$1+$1,$4,$5,$6,$7,0*
20,1,$1+$1,$6,$7,$8,$9,0*
20,1,$1+$1,$8,$9,$2,$3,0*%
G04 Aperture macros list end*
%TA.AperFunction,SMDPad,CuDef*%
%ADD10RoundRect,0.225000X-0.225000X-0.250000X0.225000X-0.250000X0.225000X0.250000X-0.225000X0.250000X0*%
%TD*%
%TA.AperFunction,SMDPad,CuDef*%
%ADD11RoundRect,0.250000X-1.750000X-1.000000X1.750000X-1.000000X1.750000X1.000000X-1.750000X1.000000X0*%
%TD*%
%TA.AperFunction,SMDPad,CuDef*%
%ADD12RoundRect,0.150000X-0.150000X0.587500X-0.150000X-0.587500X0.150000X-0.587500X0.150000X0.587500X0*%
%TD*%
%TA.AperFunction,SMDPad,CuDef*%
%ADD13RoundRect,0.225000X0.225000X0.250000X-0.225000X0.250000X-0.225000X-0.250000X0.225000X-0.250000X0*%
%TD*%
%TA.AperFunction,SMDPad,CuDef*%
%ADD14RoundRect,0.250000X0.550000X-1.500000X0.550000X1.500000X-0.550000X1.500000X-0.550000X-1.500000X0*%
%TD*%
%TA.AperFunction,SMDPad,CuDef*%
%ADD15RoundRect,0.250000X-2.050000X-0.300000X2.050000X-0.300000X2.050000X0.300000X-2.050000X0.300000X0*%
%TD*%
%TA.AperFunction,SMDPad,CuDef*%
%ADD16RoundRect,0.250002X-4.449998X-5.149998X4.449998X-5.149998X4.449998X5.149998X-4.449998X5.149998X0*%
%TD*%
%TA.AperFunction,SMDPad,CuDef*%
%ADD17RoundRect,0.135000X0.135000X0.185000X-0.135000X0.185000X-0.135000X-0.185000X0.135000X-0.185000X0*%
%TD*%
%TA.AperFunction,SMDPad,CuDef*%
%ADD18RoundRect,0.537500X-1.712500X0.537500X-1.712500X-0.537500X1.712500X-0.537500X1.712500X0.537500X0*%
%TD*%
%TA.AperFunction,ComponentPad*%
%ADD19RoundRect,0.250000X-1.050000X-1.050000X1.050000X-1.050000X1.050000X1.050000X-1.050000X1.050000X0*%
%TD*%
%TA.AperFunction,ComponentPad*%
%ADD20C,2.600000*%
%TD*%
%TA.AperFunction,SMDPad,CuDef*%
%ADD21RoundRect,0.250000X0.650000X-1.000000X0.650000X1.000000X-0.650000X1.000000X-0.650000X-1.000000X0*%
%TD*%
%TA.AperFunction,Conductor*%
%ADD22C,0.600000*%
%TD*%
%TA.AperFunction,Conductor*%
%ADD23C,0.700000*%
%TD*%
%TA.AperFunction,Conductor*%
%ADD24C,0.800000*%
%TD*%
%TA.AperFunction,Conductor*%
%ADD25C,1.100000*%
%TD*%
G04 APERTURE END LIST*
D10*
%TO.P,C4,2*%
%TO.N,GND*%
X142767600Y-99780000D03*
%TO.P,C4,1*%
%TO.N,VOUT*%
X141217600Y-99780000D03*
%TD*%
D11*
%TO.P,C3,2*%
%TO.N,GND*%
X147817600Y-108980000D03*
%TO.P,C3,1*%
%TO.N,VOUT*%
X141717600Y-108980000D03*
%TD*%
D12*
%TO.P,Q1,3,S_3*%
%TO.N,Net-(D2-K)*%
X166817600Y-110917500D03*
%TO.P,Q1,2,G_2*%
%TO.N,Net-(D2-A)*%
X165867600Y-109042500D03*
%TO.P,Q1,1,D_1*%
%TO.N,VIN*%
X167767600Y-109042500D03*
%TD*%
D13*
%TO.P,C2,2*%
%TO.N,GND*%
X165217600Y-100380000D03*
%TO.P,C2,1*%
%TO.N,Net-(D2-K)*%
X166767600Y-100380000D03*
%TD*%
D14*
%TO.P,C1,2*%
%TO.N,GND*%
X135310000Y-80850800D03*
%TO.P,C1,1*%
%TO.N,Net-(D2-K)*%
X135310000Y-86450800D03*
%TD*%
D15*
%TO.P,U1,1,VIN_1*%
%TO.N,Net-(D2-K)*%
X148842600Y-89555000D03*
%TO.P,U1,2,OUT_2*%
%TO.N,Net-(D1-K)*%
X148842600Y-91255000D03*
%TO.P,U1,3,GND_3*%
%TO.N,GND*%
X148842600Y-92955000D03*
D16*
X157992600Y-92955000D03*
D15*
%TO.P,U1,4,FB_4*%
%TO.N,VOUT*%
X148842600Y-94655000D03*
%TO.P,U1,5,~{ON}/OFF_5*%
%TO.N,GND*%
X148842600Y-96355000D03*
%TD*%
D17*
%TO.P,R1,1*%
%TO.N,Net-(D2-A)*%
X163567600Y-107780000D03*
%TO.P,R1,2*%
%TO.N,GND*%
X162547600Y-107780000D03*
%TD*%
D18*
%TO.P,L1,1,1_1*%
%TO.N,Net-(D1-K)*%
X135367600Y-98150000D03*
%TO.P,L1,2,2_2*%
%TO.N,VOUT*%
X135367600Y-101580000D03*
%TO.P,L1,3*%
%TO.N,N/C*%
X126867600Y-101580000D03*
%TO.P,L1,4*%
X126867600Y-98150000D03*
%TD*%
D19*
%TO.P,J2,1,Pin_1_1*%
%TO.N,VOUT*%
X130567600Y-117180000D03*
D20*
%TO.P,J2,2,Pin_2_2*%
%TO.N,GND*%
X135567600Y-117180000D03*
%TD*%
D19*
%TO.P,J1,1,Pin_1_1*%
%TO.N,GND*%
X162510000Y-117573200D03*
D20*
%TO.P,J1,2,Pin_2_2*%
%TO.N,VIN*%
X167510000Y-117573200D03*
%TD*%
D12*
%TO.P,D2,1,K_1*%
%TO.N,Net-(D2-K)*%
X168317600Y-103305000D03*
%TO.P,D2,2,A_2*%
%TO.N,Net-(D2-A)*%
X166417600Y-103305000D03*
%TO.P,D2,3*%
%TO.N,N/C*%
X167367600Y-105180000D03*
%TD*%
D21*
%TO.P,D1,1,K_1*%
%TO.N,Net-(D1-K)*%
X141867600Y-91480000D03*
%TO.P,D1,2,A_2*%
%TO.N,GND*%
X141867600Y-87480000D03*
%TD*%
%TO.N,Net-(D2-A)*%
D22*
X164605100Y-107780000D02*
X165867600Y-109042500D01*
X163567600Y-106155000D02*
X166417600Y-103305000D01*
D23*
X163567600Y-107780000D02*
X163567600Y-106155000D01*
X163567600Y-107780000D02*
X164605100Y-107780000D01*
%TO.N,VOUT*%
D24*
X139417600Y-101580000D02*
X141217600Y-99780000D01*
D25*
X135367600Y-101580000D02*
X139417600Y-101580000D01*
%TO.N,GND*%
X144592600Y-96355000D02*
X142767600Y-98180000D01*
D24*
X142767600Y-98180000D02*
X142767600Y-99780000D01*
D25*
X148842600Y-96355000D02*
X144592600Y-96355000D01*
%TO.N,VOUT*%
D24*
X141217600Y-96480000D02*
X141217600Y-99780000D01*
D25*
X143042600Y-94655000D02*
X141217600Y-96480000D01*
X148842600Y-94655000D02*
X143042600Y-94655000D01*
%TD*%
%TA.AperFunction,Conductor*%
%TO.N,Net-(D2-K)*%
G36*
X174016125Y-73377683D02*
G01*
X174051032Y-73382836D01*
X174066024Y-73387300D01*
X174080982Y-73396992D01*
X174098054Y-73402073D01*
X174124641Y-73425280D01*
X174125830Y-73426663D01*
X174153083Y-73481607D01*
X174154697Y-73489157D01*
X174157434Y-73515506D01*
X174038178Y-107497491D01*
X174033034Y-107532404D01*
X174028578Y-107547387D01*
X174018879Y-107562363D01*
X174013790Y-107579463D01*
X173990615Y-107606009D01*
X173990600Y-107606033D01*
X173990579Y-107606051D01*
X173989207Y-107607231D01*
X173934291Y-107634475D01*
X173926723Y-107636094D01*
X173900348Y-107638837D01*
X167313133Y-107615719D01*
X167200376Y-107615324D01*
X167200375Y-107615323D01*
X167172039Y-107615225D01*
X167171970Y-107615225D01*
X167171969Y-107615225D01*
X167163176Y-107924276D01*
X167163175Y-107924278D01*
X167163176Y-107924280D01*
X167157160Y-107959058D01*
X167148830Y-107984702D01*
X167118583Y-108034068D01*
X167099531Y-108053122D01*
X167099513Y-108053142D01*
X167099509Y-108053147D01*
X167015858Y-108194595D01*
X167015856Y-108194599D01*
X167015852Y-108194612D01*
X166970003Y-108352419D01*
X166970002Y-108352425D01*
X166970001Y-108352426D01*
X166970001Y-108352428D01*
X166967100Y-108389290D01*
X166967100Y-109695708D01*
X166970001Y-109732570D01*
X166970001Y-109732572D01*
X166970002Y-109732573D01*
X166970003Y-109732579D01*
X167011693Y-109876074D01*
X167011694Y-109876077D01*
X167015854Y-109890393D01*
X167015854Y-109890394D01*
X167076744Y-109993356D01*
X167077571Y-109994846D01*
X167078124Y-109997311D01*
X167089193Y-110023976D01*
X167097630Y-110056636D01*
X167101521Y-110091178D01*
X167061933Y-111482584D01*
X167061759Y-111483596D01*
X167061819Y-111483599D01*
X167061799Y-111484181D01*
X167059119Y-111498992D01*
X167056030Y-111517016D01*
X167055939Y-111517299D01*
X167055815Y-111517259D01*
X167055439Y-111519343D01*
X167050741Y-111533354D01*
X167040783Y-111547773D01*
X167035543Y-111563909D01*
X167011681Y-111589915D01*
X167006875Y-111593846D01*
X166942521Y-111621054D01*
X166941350Y-111621183D01*
X166878644Y-111627784D01*
X166864598Y-111628460D01*
X166850616Y-111628340D01*
X166836588Y-111627423D01*
X166715222Y-111612540D01*
X166715221Y-111612541D01*
X166715218Y-111612540D01*
X166715216Y-111612540D01*
X166681157Y-111603305D01*
X166675427Y-111600831D01*
X166666805Y-111597108D01*
X166662878Y-111593846D01*
X166613064Y-111552468D01*
X166609820Y-111547643D01*
X166590156Y-111497288D01*
X166590053Y-111496618D01*
X166588613Y-111477772D01*
X166588675Y-110073631D01*
X166588678Y-109992816D01*
X166593074Y-109960098D01*
X166601553Y-109929110D01*
X166614425Y-109898714D01*
X166619344Y-109890398D01*
X166665198Y-109732569D01*
X166668100Y-109695694D01*
X166668100Y-108389306D01*
X166665198Y-108352431D01*
X166665196Y-108352425D01*
X166619344Y-108194602D01*
X166619343Y-108194600D01*
X166614509Y-108186426D01*
X166601632Y-108156019D01*
X166593154Y-108125025D01*
X166588761Y-108092313D01*
X166588808Y-107021706D01*
X166593832Y-106986775D01*
X166598237Y-106971776D01*
X166636010Y-106913003D01*
X166637387Y-106911810D01*
X166692224Y-106884363D01*
X166699790Y-106882718D01*
X166726135Y-106879886D01*
X169317600Y-106880000D01*
X169367600Y-103980000D01*
X169367599Y-103980000D01*
X169367599Y-103979998D01*
X168187920Y-104004457D01*
X168152889Y-104000160D01*
X168137803Y-103996068D01*
X168078255Y-103959520D01*
X168077404Y-103958578D01*
X168048587Y-103903328D01*
X168046640Y-103894890D01*
X168043466Y-103867556D01*
X168029918Y-100782831D01*
X168029917Y-100782830D01*
X168029916Y-100782830D01*
X166540256Y-100794863D01*
X166540253Y-100794862D01*
X166540252Y-100794863D01*
X166505278Y-100790121D01*
X166490245Y-100785838D01*
X166431173Y-100748548D01*
X166429975Y-100747188D01*
X166402074Y-100692560D01*
X166400366Y-100685002D01*
X166397323Y-100658685D01*
X166309378Y-89770694D01*
X166207600Y-77170000D01*
X166207599Y-77169999D01*
X166207597Y-77169998D01*
X129028422Y-77054382D01*
X129028422Y-77054383D01*
X129137600Y-84370000D01*
X138085217Y-84509924D01*
X138120068Y-84515493D01*
X138134995Y-84520131D01*
X138193175Y-84558821D01*
X138193178Y-84558825D01*
X138194401Y-84560282D01*
X138220952Y-84615365D01*
X138222458Y-84622793D01*
X138224921Y-84649032D01*
X138167673Y-89085974D01*
X138164883Y-89302178D01*
X144907600Y-89335364D01*
X144907600Y-89340000D01*
X144909912Y-89335375D01*
X144917345Y-89335412D01*
X144911387Y-89695740D01*
X139979279Y-89601793D01*
X124676783Y-89310312D01*
X124641950Y-89304624D01*
X124627041Y-89299936D01*
X124568993Y-89261049D01*
X124568990Y-89261045D01*
X124567507Y-89259266D01*
X124541296Y-89204852D01*
X124539912Y-89198122D01*
X124537371Y-89172680D01*
X124597278Y-73332610D01*
X124602431Y-73297703D01*
X124606895Y-73282711D01*
X124644868Y-73224101D01*
X124646250Y-73222913D01*
X124701209Y-73195656D01*
X124708785Y-73194037D01*
X124735135Y-73191306D01*
X174016125Y-73377683D01*
G37*
%TD.AperFunction*%
%TD*%
%TA.AperFunction,Conductor*%
%TO.N,VIN*%
G36*
X173772346Y-108479523D02*
G01*
X173807260Y-108484664D01*
X173814731Y-108486885D01*
X173822246Y-108489120D01*
X173837222Y-108498817D01*
X173854323Y-108503906D01*
X173880872Y-108527080D01*
X173880895Y-108527095D01*
X173880912Y-108527115D01*
X173882173Y-108528581D01*
X173909370Y-108583258D01*
X173910959Y-108590617D01*
X173913755Y-108616760D01*
X173918193Y-123020109D01*
X173913180Y-123055048D01*
X173908780Y-123070049D01*
X173899142Y-123085054D01*
X173894122Y-123102166D01*
X173871031Y-123128825D01*
X173871023Y-123128838D01*
X173871015Y-123128844D01*
X173869648Y-123130029D01*
X173814833Y-123157489D01*
X173807272Y-123159137D01*
X173780903Y-123161981D01*
X165909685Y-123164418D01*
X165874746Y-123159405D01*
X165859745Y-123155005D01*
X165844743Y-123145370D01*
X165827637Y-123140353D01*
X165800960Y-123117251D01*
X165799774Y-123115884D01*
X165772306Y-123061043D01*
X165771567Y-123057651D01*
X165770656Y-123053469D01*
X165767817Y-123027090D01*
X165767817Y-123020109D01*
X165767385Y-112990356D01*
X165772406Y-112955430D01*
X165776810Y-112940431D01*
X165786435Y-112925444D01*
X165791438Y-112908376D01*
X165814537Y-112881691D01*
X165815655Y-112880721D01*
X165871158Y-112853098D01*
X165879301Y-112851370D01*
X165906294Y-112848676D01*
X168967600Y-112880000D01*
X168962756Y-109578980D01*
X168962755Y-109578980D01*
X168962754Y-109578980D01*
X168961756Y-109578981D01*
X167710403Y-109580816D01*
X167710403Y-109580817D01*
X167710402Y-109580816D01*
X167710402Y-109580817D01*
X167675460Y-109575845D01*
X167660458Y-109571464D01*
X167601647Y-109533802D01*
X167600567Y-109532560D01*
X167572942Y-109477415D01*
X167571246Y-109469576D01*
X167568443Y-109442913D01*
X167571432Y-108603545D01*
X167571443Y-108600427D01*
X167576588Y-108565520D01*
X167581048Y-108550529D01*
X167619005Y-108491913D01*
X167619004Y-108491913D01*
X167620385Y-108490725D01*
X167675332Y-108463451D01*
X167682897Y-108461832D01*
X167709236Y-108459091D01*
X173772346Y-108479523D01*
G37*
%TD.AperFunction*%
%TD*%
%TA.AperFunction,Conductor*%
%TO.N,Net-(D1-K)*%
G36*
X141967600Y-90180000D02*
G01*
X143643600Y-90180000D01*
X143710639Y-90199685D01*
X143756394Y-90252489D01*
X143767600Y-90304000D01*
X143767600Y-90780000D01*
X150843600Y-90780000D01*
X150910639Y-90799685D01*
X150956394Y-90852489D01*
X150967600Y-90904000D01*
X150967600Y-91544000D01*
X150947915Y-91611039D01*
X150895111Y-91656794D01*
X150843600Y-91668000D01*
X143687600Y-91668000D01*
X143687600Y-92560000D01*
X143667915Y-92627039D01*
X143615111Y-92672794D01*
X143563600Y-92684000D01*
X138099600Y-92684000D01*
X138099600Y-99164000D01*
X138079915Y-99231039D01*
X138027111Y-99276794D01*
X137975600Y-99288000D01*
X131619600Y-99288000D01*
X131552561Y-99268315D01*
X131506806Y-99215511D01*
X131495600Y-99164000D01*
X131495600Y-93192000D01*
X124641600Y-93192000D01*
X124574561Y-93172315D01*
X124528806Y-93119511D01*
X124517600Y-93068000D01*
X124517600Y-90267472D01*
X124537285Y-90200433D01*
X124590089Y-90154678D01*
X124641856Y-90143472D01*
X141967600Y-90180000D01*
G37*
%TD.AperFunction*%
%TD*%
%TA.AperFunction,Conductor*%
%TO.N,VOUT*%
G36*
X137872449Y-100581919D02*
G01*
X137939320Y-100602164D01*
X137984631Y-100655349D01*
X137995406Y-100706953D01*
X137967600Y-104030000D01*
X143546503Y-104042398D01*
X143613497Y-104062232D01*
X143659135Y-104115137D01*
X143670226Y-104166674D01*
X143652198Y-112278931D01*
X143632364Y-112345926D01*
X143579459Y-112391564D01*
X143527960Y-112402655D01*
X131717600Y-112380000D01*
X131865898Y-123304687D01*
X131847125Y-123371987D01*
X131794947Y-123418455D01*
X131742275Y-123430369D01*
X124684405Y-123451177D01*
X124617307Y-123431691D01*
X124571397Y-123379022D01*
X124560040Y-123327544D01*
X124527832Y-112402655D01*
X124512991Y-107368703D01*
X124532477Y-107301608D01*
X124585146Y-107255698D01*
X124636637Y-107244340D01*
X131686446Y-107224494D01*
X131667952Y-100655390D01*
X131687448Y-100588299D01*
X131740123Y-100542396D01*
X131792989Y-100531049D01*
X137872449Y-100581919D01*
G37*
%TD.AperFunction*%
%TD*%
%TA.AperFunction,Conductor*%
%TO.N,Net-(D2-K)*%
G36*
X150960203Y-87023996D02*
G01*
X150995082Y-87029360D01*
X151010041Y-87033912D01*
X151024950Y-87043701D01*
X151042012Y-87048896D01*
X151068432Y-87072252D01*
X151068446Y-87072261D01*
X151068455Y-87072272D01*
X151069627Y-87073652D01*
X151096531Y-87128749D01*
X151098101Y-87136322D01*
X151100677Y-87162707D01*
X151074513Y-89838206D01*
X151069148Y-89873091D01*
X151064597Y-89888047D01*
X151054814Y-89902947D01*
X151049627Y-89919999D01*
X151026256Y-89946447D01*
X151024660Y-89947803D01*
X150970061Y-89974615D01*
X150962973Y-89976116D01*
X150937138Y-89978806D01*
X145050573Y-89971862D01*
X145015640Y-89966797D01*
X145000644Y-89962374D01*
X144985661Y-89952722D01*
X144968584Y-89947690D01*
X144941933Y-89924552D01*
X144941082Y-89923568D01*
X144913477Y-89867740D01*
X144911722Y-89859314D01*
X144909134Y-89831979D01*
X144917269Y-89340000D01*
X144917600Y-89320000D01*
X144918542Y-89263002D01*
X144918582Y-89260599D01*
X144916501Y-89256541D01*
X144913359Y-89246594D01*
X144913058Y-89231850D01*
X144907600Y-89209242D01*
X144907600Y-87107856D01*
X144912623Y-87072920D01*
X144917027Y-87057922D01*
X144954786Y-86999158D01*
X144955913Y-86998181D01*
X145011355Y-86970590D01*
X145019468Y-86968867D01*
X145046443Y-86966166D01*
X150960203Y-87023996D01*
G37*
%TD.AperFunction*%
%TD*%
%TA.AperFunction,Conductor*%
%TO.N,GND*%
G36*
X165347691Y-78611265D02*
G01*
X165362689Y-78615664D01*
X165377685Y-78625292D01*
X165394776Y-78630302D01*
X165421461Y-78653401D01*
X165422756Y-78654894D01*
X165450177Y-78709453D01*
X165451781Y-78716730D01*
X165454686Y-78742768D01*
X165576843Y-101944556D01*
X165572004Y-101979517D01*
X165567678Y-101994542D01*
X165558102Y-102009615D01*
X165553153Y-102026775D01*
X165530247Y-102053465D01*
X165530214Y-102053518D01*
X165530168Y-102053558D01*
X165528985Y-102054593D01*
X165473897Y-102082391D01*
X165465944Y-102084135D01*
X165439144Y-102087013D01*
X162880543Y-102082079D01*
X162874772Y-102082068D01*
X162874771Y-102082067D01*
X162839333Y-102082000D01*
X162839200Y-102082000D01*
X162839199Y-102082000D01*
X162839198Y-102082000D01*
X162800174Y-105750325D01*
X162797668Y-105773846D01*
X162792995Y-105796701D01*
X162786069Y-105819313D01*
X162749789Y-105906901D01*
X162749780Y-105906927D01*
X162717100Y-106071229D01*
X162717100Y-107863769D01*
X162749780Y-108028071D01*
X162749787Y-108028092D01*
X162760785Y-108054642D01*
X162767968Y-108078551D01*
X162772635Y-108102684D01*
X162774884Y-108127547D01*
X162737600Y-111632399D01*
X162737600Y-111632400D01*
X163839392Y-111632400D01*
X163874327Y-111637423D01*
X163889325Y-111641827D01*
X163948080Y-111679576D01*
X163949214Y-111680884D01*
X163976720Y-111735894D01*
X163978384Y-111743586D01*
X163981187Y-111770104D01*
X163974296Y-114615760D01*
X163953826Y-123066293D01*
X163953825Y-123066294D01*
X163953826Y-123066295D01*
X163948718Y-123101218D01*
X163944278Y-123116204D01*
X163906360Y-123174890D01*
X163906344Y-123174904D01*
X163904707Y-123176315D01*
X163850470Y-123203477D01*
X163843505Y-123205014D01*
X163817796Y-123207923D01*
X133876930Y-123452405D01*
X133876930Y-123452406D01*
X133876929Y-123452405D01*
X133876929Y-123452406D01*
X133841956Y-123447669D01*
X133826920Y-123443387D01*
X133767838Y-123406095D01*
X133767822Y-123406077D01*
X133766399Y-123404461D01*
X133738658Y-123350487D01*
X133737047Y-123343530D01*
X133733871Y-123317854D01*
X133575467Y-114747693D01*
X133579842Y-114712681D01*
X133583971Y-114697595D01*
X133620627Y-114638157D01*
X133621977Y-114636942D01*
X133676324Y-114608461D01*
X133683852Y-114606677D01*
X133710145Y-114603357D01*
X145985387Y-114376473D01*
X145671148Y-101624011D01*
X145675307Y-101588971D01*
X145679342Y-101573863D01*
X145715652Y-101514177D01*
X145716563Y-101513348D01*
X145771784Y-101484299D01*
X145780301Y-101482305D01*
X145807709Y-101479045D01*
X152399299Y-101434151D01*
X152367600Y-96780000D01*
X146730203Y-96755595D01*
X146730197Y-96755594D01*
X146730195Y-96755595D01*
X146695283Y-96750418D01*
X146692541Y-96749600D01*
X146680306Y-96745949D01*
X146621717Y-96707943D01*
X146619793Y-96705704D01*
X146593024Y-96652808D01*
X146591728Y-96647200D01*
X146588601Y-96623036D01*
X146588524Y-96620526D01*
X146572043Y-96076650D01*
X146576006Y-96041593D01*
X146579955Y-96026462D01*
X146615933Y-95966571D01*
X146615943Y-95966562D01*
X146616334Y-95966202D01*
X146672644Y-95936554D01*
X146682319Y-95934338D01*
X146711041Y-95931215D01*
X152467600Y-95980000D01*
X152467600Y-93380000D01*
X152467599Y-93379999D01*
X146749512Y-93301291D01*
X146749511Y-93301290D01*
X146749511Y-93301291D01*
X146714650Y-93295788D01*
X146699713Y-93291178D01*
X146641486Y-93252627D01*
X146641461Y-93252598D01*
X146641460Y-93252597D01*
X146641459Y-93252595D01*
X146640319Y-93251243D01*
X146613598Y-93195993D01*
X146612056Y-93188404D01*
X146609588Y-93162021D01*
X146615699Y-92718000D01*
X146621202Y-92683146D01*
X146625813Y-92668205D01*
X146664395Y-92609956D01*
X146666575Y-92608118D01*
X146719888Y-92581833D01*
X146725714Y-92580555D01*
X146750120Y-92577695D01*
X152367600Y-92480000D01*
X152418289Y-86200230D01*
X143717600Y-86130000D01*
X143717599Y-86130000D01*
X143717598Y-86130002D01*
X143759805Y-88444964D01*
X143757482Y-88463519D01*
X143755422Y-88479979D01*
X143751293Y-88495055D01*
X143714599Y-88554513D01*
X143714581Y-88554529D01*
X143713219Y-88555753D01*
X143658945Y-88584178D01*
X143651451Y-88585955D01*
X143625181Y-88589279D01*
X139323942Y-88670456D01*
X139323942Y-88670457D01*
X139323941Y-88670456D01*
X139323937Y-88670457D01*
X139288918Y-88666095D01*
X139273841Y-88661976D01*
X139214359Y-88625320D01*
X139214326Y-88625283D01*
X139213682Y-88624567D01*
X139184872Y-88568736D01*
X139182862Y-88559758D01*
X139179872Y-88531835D01*
X139180345Y-88462790D01*
X139182170Y-88195847D01*
X139218904Y-82825030D01*
X139219745Y-82702015D01*
X139219746Y-82701879D01*
X139219745Y-82701878D01*
X139219745Y-82701877D01*
X131492514Y-82649030D01*
X131457622Y-82643771D01*
X131442652Y-82639265D01*
X131384132Y-82601094D01*
X131384108Y-82601065D01*
X131382778Y-82599508D01*
X131355811Y-82544931D01*
X131354275Y-82537758D01*
X131351529Y-82511845D01*
X131350431Y-78758014D01*
X131355444Y-78723078D01*
X131359843Y-78708080D01*
X131397598Y-78649293D01*
X131398967Y-78648106D01*
X131453803Y-78620635D01*
X131461366Y-78618987D01*
X131487718Y-78616147D01*
X165312756Y-78606252D01*
X165347691Y-78611265D01*
G37*
%TD.AperFunction*%
%TD*%
M02*
