%TF.GenerationSoftware,KiCad,Pcbnew,10.0.1*%
%TF.CreationDate,2026-05-13T02:21:32+03:00*%
%TF.ProjectId,Asynchronous Buck Converter,4173796e-6368-4726-9f6e-6f7573204275,A*%
%TF.SameCoordinates,Original*%
%TF.FileFunction,Legend,Top*%
%TF.FilePolarity,Positive*%
%FSLAX46Y46*%
G04 Gerber Fmt 4.6, Leading zero omitted, Abs format (unit mm)*
G04 Created by KiCad (PCBNEW 10.0.1) date 2026-05-13 02:21:32*
%MOMM*%
%LPD*%
G01*
G04 APERTURE LIST*
%ADD10C,0.150000*%
%ADD11C,0.120000*%
G04 APERTURE END LIST*
D10*
X141900933Y-101739580D02*
X141853314Y-101787200D01*
X141853314Y-101787200D02*
X141710457Y-101834819D01*
X141710457Y-101834819D02*
X141615219Y-101834819D01*
X141615219Y-101834819D02*
X141472362Y-101787200D01*
X141472362Y-101787200D02*
X141377124Y-101691961D01*
X141377124Y-101691961D02*
X141329505Y-101596723D01*
X141329505Y-101596723D02*
X141281886Y-101406247D01*
X141281886Y-101406247D02*
X141281886Y-101263390D01*
X141281886Y-101263390D02*
X141329505Y-101072914D01*
X141329505Y-101072914D02*
X141377124Y-100977676D01*
X141377124Y-100977676D02*
X141472362Y-100882438D01*
X141472362Y-100882438D02*
X141615219Y-100834819D01*
X141615219Y-100834819D02*
X141710457Y-100834819D01*
X141710457Y-100834819D02*
X141853314Y-100882438D01*
X141853314Y-100882438D02*
X141900933Y-100930057D01*
X142758076Y-101168152D02*
X142758076Y-101834819D01*
X142519981Y-100787200D02*
X142281886Y-101501485D01*
X142281886Y-101501485D02*
X142900933Y-101501485D01*
X144600933Y-104139580D02*
X144553314Y-104187200D01*
X144553314Y-104187200D02*
X144410457Y-104234819D01*
X144410457Y-104234819D02*
X144315219Y-104234819D01*
X144315219Y-104234819D02*
X144172362Y-104187200D01*
X144172362Y-104187200D02*
X144077124Y-104091961D01*
X144077124Y-104091961D02*
X144029505Y-103996723D01*
X144029505Y-103996723D02*
X143981886Y-103806247D01*
X143981886Y-103806247D02*
X143981886Y-103663390D01*
X143981886Y-103663390D02*
X144029505Y-103472914D01*
X144029505Y-103472914D02*
X144077124Y-103377676D01*
X144077124Y-103377676D02*
X144172362Y-103282438D01*
X144172362Y-103282438D02*
X144315219Y-103234819D01*
X144315219Y-103234819D02*
X144410457Y-103234819D01*
X144410457Y-103234819D02*
X144553314Y-103282438D01*
X144553314Y-103282438D02*
X144600933Y-103330057D01*
X144934267Y-103234819D02*
X145553314Y-103234819D01*
X145553314Y-103234819D02*
X145219981Y-103615771D01*
X145219981Y-103615771D02*
X145362838Y-103615771D01*
X145362838Y-103615771D02*
X145458076Y-103663390D01*
X145458076Y-103663390D02*
X145505695Y-103711009D01*
X145505695Y-103711009D02*
X145553314Y-103806247D01*
X145553314Y-103806247D02*
X145553314Y-104044342D01*
X145553314Y-104044342D02*
X145505695Y-104139580D01*
X145505695Y-104139580D02*
X145458076Y-104187200D01*
X145458076Y-104187200D02*
X145362838Y-104234819D01*
X145362838Y-104234819D02*
X145077124Y-104234819D01*
X145077124Y-104234819D02*
X144981886Y-104187200D01*
X144981886Y-104187200D02*
X144934267Y-104139580D01*
X164811657Y-110051238D02*
X164764038Y-110146476D01*
X164764038Y-110146476D02*
X164668800Y-110241714D01*
X164668800Y-110241714D02*
X164525942Y-110384571D01*
X164525942Y-110384571D02*
X164478323Y-110479809D01*
X164478323Y-110479809D02*
X164478323Y-110575047D01*
X164716419Y-110527428D02*
X164668800Y-110622666D01*
X164668800Y-110622666D02*
X164573561Y-110717904D01*
X164573561Y-110717904D02*
X164383085Y-110765523D01*
X164383085Y-110765523D02*
X164049752Y-110765523D01*
X164049752Y-110765523D02*
X163859276Y-110717904D01*
X163859276Y-110717904D02*
X163764038Y-110622666D01*
X163764038Y-110622666D02*
X163716419Y-110527428D01*
X163716419Y-110527428D02*
X163716419Y-110336952D01*
X163716419Y-110336952D02*
X163764038Y-110241714D01*
X163764038Y-110241714D02*
X163859276Y-110146476D01*
X163859276Y-110146476D02*
X164049752Y-110098857D01*
X164049752Y-110098857D02*
X164383085Y-110098857D01*
X164383085Y-110098857D02*
X164573561Y-110146476D01*
X164573561Y-110146476D02*
X164668800Y-110241714D01*
X164668800Y-110241714D02*
X164716419Y-110336952D01*
X164716419Y-110336952D02*
X164716419Y-110527428D01*
X164716419Y-109146476D02*
X164716419Y-109717904D01*
X164716419Y-109432190D02*
X163716419Y-109432190D01*
X163716419Y-109432190D02*
X163859276Y-109527428D01*
X163859276Y-109527428D02*
X163954514Y-109622666D01*
X163954514Y-109622666D02*
X164002133Y-109717904D01*
X165800933Y-99139580D02*
X165753314Y-99187200D01*
X165753314Y-99187200D02*
X165610457Y-99234819D01*
X165610457Y-99234819D02*
X165515219Y-99234819D01*
X165515219Y-99234819D02*
X165372362Y-99187200D01*
X165372362Y-99187200D02*
X165277124Y-99091961D01*
X165277124Y-99091961D02*
X165229505Y-98996723D01*
X165229505Y-98996723D02*
X165181886Y-98806247D01*
X165181886Y-98806247D02*
X165181886Y-98663390D01*
X165181886Y-98663390D02*
X165229505Y-98472914D01*
X165229505Y-98472914D02*
X165277124Y-98377676D01*
X165277124Y-98377676D02*
X165372362Y-98282438D01*
X165372362Y-98282438D02*
X165515219Y-98234819D01*
X165515219Y-98234819D02*
X165610457Y-98234819D01*
X165610457Y-98234819D02*
X165753314Y-98282438D01*
X165753314Y-98282438D02*
X165800933Y-98330057D01*
X166181886Y-98330057D02*
X166229505Y-98282438D01*
X166229505Y-98282438D02*
X166324743Y-98234819D01*
X166324743Y-98234819D02*
X166562838Y-98234819D01*
X166562838Y-98234819D02*
X166658076Y-98282438D01*
X166658076Y-98282438D02*
X166705695Y-98330057D01*
X166705695Y-98330057D02*
X166753314Y-98425295D01*
X166753314Y-98425295D02*
X166753314Y-98520533D01*
X166753314Y-98520533D02*
X166705695Y-98663390D01*
X166705695Y-98663390D02*
X166134267Y-99234819D01*
X166134267Y-99234819D02*
X166753314Y-99234819D01*
X135050933Y-78389580D02*
X135003314Y-78437200D01*
X135003314Y-78437200D02*
X134860457Y-78484819D01*
X134860457Y-78484819D02*
X134765219Y-78484819D01*
X134765219Y-78484819D02*
X134622362Y-78437200D01*
X134622362Y-78437200D02*
X134527124Y-78341961D01*
X134527124Y-78341961D02*
X134479505Y-78246723D01*
X134479505Y-78246723D02*
X134431886Y-78056247D01*
X134431886Y-78056247D02*
X134431886Y-77913390D01*
X134431886Y-77913390D02*
X134479505Y-77722914D01*
X134479505Y-77722914D02*
X134527124Y-77627676D01*
X134527124Y-77627676D02*
X134622362Y-77532438D01*
X134622362Y-77532438D02*
X134765219Y-77484819D01*
X134765219Y-77484819D02*
X134860457Y-77484819D01*
X134860457Y-77484819D02*
X135003314Y-77532438D01*
X135003314Y-77532438D02*
X135050933Y-77580057D01*
X136003314Y-78484819D02*
X135431886Y-78484819D01*
X135717600Y-78484819D02*
X135717600Y-77484819D01*
X135717600Y-77484819D02*
X135622362Y-77627676D01*
X135622362Y-77627676D02*
X135527124Y-77722914D01*
X135527124Y-77722914D02*
X135431886Y-77770533D01*
X155730695Y-85759819D02*
X155730695Y-86569342D01*
X155730695Y-86569342D02*
X155778314Y-86664580D01*
X155778314Y-86664580D02*
X155825933Y-86712200D01*
X155825933Y-86712200D02*
X155921171Y-86759819D01*
X155921171Y-86759819D02*
X156111647Y-86759819D01*
X156111647Y-86759819D02*
X156206885Y-86712200D01*
X156206885Y-86712200D02*
X156254504Y-86664580D01*
X156254504Y-86664580D02*
X156302123Y-86569342D01*
X156302123Y-86569342D02*
X156302123Y-85759819D01*
X157302123Y-86759819D02*
X156730695Y-86759819D01*
X157016409Y-86759819D02*
X157016409Y-85759819D01*
X157016409Y-85759819D02*
X156921171Y-85902676D01*
X156921171Y-85902676D02*
X156825933Y-85997914D01*
X156825933Y-85997914D02*
X156730695Y-86045533D01*
X163078933Y-107108819D02*
X162745600Y-106632628D01*
X162507505Y-107108819D02*
X162507505Y-106108819D01*
X162507505Y-106108819D02*
X162888457Y-106108819D01*
X162888457Y-106108819D02*
X162983695Y-106156438D01*
X162983695Y-106156438D02*
X163031314Y-106204057D01*
X163031314Y-106204057D02*
X163078933Y-106299295D01*
X163078933Y-106299295D02*
X163078933Y-106442152D01*
X163078933Y-106442152D02*
X163031314Y-106537390D01*
X163031314Y-106537390D02*
X162983695Y-106585009D01*
X162983695Y-106585009D02*
X162888457Y-106632628D01*
X162888457Y-106632628D02*
X162507505Y-106632628D01*
X164031314Y-107108819D02*
X163459886Y-107108819D01*
X163745600Y-107108819D02*
X163745600Y-106108819D01*
X163745600Y-106108819D02*
X163650362Y-106251676D01*
X163650362Y-106251676D02*
X163555124Y-106346914D01*
X163555124Y-106346914D02*
X163459886Y-106394533D01*
X139022419Y-96281666D02*
X139022419Y-96757856D01*
X139022419Y-96757856D02*
X138022419Y-96757856D01*
X139022419Y-95424523D02*
X139022419Y-95995951D01*
X139022419Y-95710237D02*
X138022419Y-95710237D01*
X138022419Y-95710237D02*
X138165276Y-95805475D01*
X138165276Y-95805475D02*
X138260514Y-95900713D01*
X138260514Y-95900713D02*
X138308133Y-95995951D01*
X132734266Y-111514819D02*
X132734266Y-112229104D01*
X132734266Y-112229104D02*
X132686647Y-112371961D01*
X132686647Y-112371961D02*
X132591409Y-112467200D01*
X132591409Y-112467200D02*
X132448552Y-112514819D01*
X132448552Y-112514819D02*
X132353314Y-112514819D01*
X133162838Y-111610057D02*
X133210457Y-111562438D01*
X133210457Y-111562438D02*
X133305695Y-111514819D01*
X133305695Y-111514819D02*
X133543790Y-111514819D01*
X133543790Y-111514819D02*
X133639028Y-111562438D01*
X133639028Y-111562438D02*
X133686647Y-111610057D01*
X133686647Y-111610057D02*
X133734266Y-111705295D01*
X133734266Y-111705295D02*
X133734266Y-111800533D01*
X133734266Y-111800533D02*
X133686647Y-111943390D01*
X133686647Y-111943390D02*
X133115219Y-112514819D01*
X133115219Y-112514819D02*
X133734266Y-112514819D01*
X161234266Y-111834819D02*
X161234266Y-112549104D01*
X161234266Y-112549104D02*
X161186647Y-112691961D01*
X161186647Y-112691961D02*
X161091409Y-112787200D01*
X161091409Y-112787200D02*
X160948552Y-112834819D01*
X160948552Y-112834819D02*
X160853314Y-112834819D01*
X162234266Y-112834819D02*
X161662838Y-112834819D01*
X161948552Y-112834819D02*
X161948552Y-111834819D01*
X161948552Y-111834819D02*
X161853314Y-111977676D01*
X161853314Y-111977676D02*
X161758076Y-112072914D01*
X161758076Y-112072914D02*
X161662838Y-112120533D01*
X165478419Y-105106094D02*
X164478419Y-105106094D01*
X164478419Y-105106094D02*
X164478419Y-104867999D01*
X164478419Y-104867999D02*
X164526038Y-104725142D01*
X164526038Y-104725142D02*
X164621276Y-104629904D01*
X164621276Y-104629904D02*
X164716514Y-104582285D01*
X164716514Y-104582285D02*
X164906990Y-104534666D01*
X164906990Y-104534666D02*
X165049847Y-104534666D01*
X165049847Y-104534666D02*
X165240323Y-104582285D01*
X165240323Y-104582285D02*
X165335561Y-104629904D01*
X165335561Y-104629904D02*
X165430800Y-104725142D01*
X165430800Y-104725142D02*
X165478419Y-104867999D01*
X165478419Y-104867999D02*
X165478419Y-105106094D01*
X164573657Y-104153713D02*
X164526038Y-104106094D01*
X164526038Y-104106094D02*
X164478419Y-104010856D01*
X164478419Y-104010856D02*
X164478419Y-103772761D01*
X164478419Y-103772761D02*
X164526038Y-103677523D01*
X164526038Y-103677523D02*
X164573657Y-103629904D01*
X164573657Y-103629904D02*
X164668895Y-103582285D01*
X164668895Y-103582285D02*
X164764133Y-103582285D01*
X164764133Y-103582285D02*
X164906990Y-103629904D01*
X164906990Y-103629904D02*
X165478419Y-104201332D01*
X165478419Y-104201332D02*
X165478419Y-103582285D01*
X141029505Y-85484819D02*
X141029505Y-84484819D01*
X141029505Y-84484819D02*
X141267600Y-84484819D01*
X141267600Y-84484819D02*
X141410457Y-84532438D01*
X141410457Y-84532438D02*
X141505695Y-84627676D01*
X141505695Y-84627676D02*
X141553314Y-84722914D01*
X141553314Y-84722914D02*
X141600933Y-84913390D01*
X141600933Y-84913390D02*
X141600933Y-85056247D01*
X141600933Y-85056247D02*
X141553314Y-85246723D01*
X141553314Y-85246723D02*
X141505695Y-85341961D01*
X141505695Y-85341961D02*
X141410457Y-85437200D01*
X141410457Y-85437200D02*
X141267600Y-85484819D01*
X141267600Y-85484819D02*
X141029505Y-85484819D01*
X142553314Y-85484819D02*
X141981886Y-85484819D01*
X142267600Y-85484819D02*
X142267600Y-84484819D01*
X142267600Y-84484819D02*
X142172362Y-84627676D01*
X142172362Y-84627676D02*
X142077124Y-84722914D01*
X142077124Y-84722914D02*
X141981886Y-84770533D01*
%TO.C,C4*%
D11*
X141852020Y-100290000D02*
X142133180Y-100290000D01*
X141852020Y-99270000D02*
X142133180Y-99270000D01*
%TO.C,C3*%
X149027600Y-113240000D02*
X149027600Y-110490000D01*
X149027600Y-104720000D02*
X149027600Y-107470000D01*
X141572037Y-113240000D02*
X149027600Y-113240000D01*
X141572037Y-104720000D02*
X149027600Y-104720000D01*
X140507600Y-112175563D02*
X141572037Y-113240000D01*
X140507600Y-112175563D02*
X140507600Y-110490000D01*
X140507600Y-105784437D02*
X141572037Y-104720000D01*
X140507600Y-105784437D02*
X140507600Y-107470000D01*
X139767600Y-105970000D02*
X139767600Y-106970000D01*
X139267600Y-106470000D02*
X140267600Y-106470000D01*
%TO.C,Q1*%
X167197600Y-108680000D02*
X166867600Y-108920000D01*
X166867600Y-108440000D01*
X167197600Y-108680000D01*
G36*
X167197600Y-108680000D02*
G01*
X166867600Y-108920000D01*
X166867600Y-108440000D01*
X167197600Y-108680000D01*
G37*
X165257600Y-110740000D02*
X165257600Y-109220000D01*
X166257600Y-110740000D02*
X165257600Y-110740000D01*
X168377600Y-110740000D02*
X167377600Y-110740000D01*
X165257600Y-109220000D02*
X165307600Y-109220000D01*
X166427600Y-109220000D02*
X167207600Y-109220000D01*
X168327600Y-109220000D02*
X168377600Y-109220000D01*
X168377600Y-109220000D02*
X168377600Y-110740000D01*
%TO.C,C2*%
X166133180Y-99870000D02*
X165852020Y-99870000D01*
X166133180Y-100890000D02*
X165852020Y-100890000D01*
%TO.C,C1*%
X138720000Y-80240800D02*
X136370000Y-80240800D01*
X131900000Y-80240800D02*
X134250000Y-80240800D01*
X138720000Y-85996363D02*
X138720000Y-80240800D01*
X131900000Y-85996363D02*
X131900000Y-80240800D01*
X137655563Y-87060800D02*
X138720000Y-85996363D01*
X137655563Y-87060800D02*
X136370000Y-87060800D01*
X132964437Y-87060800D02*
X131900000Y-85996363D01*
X132964437Y-87060800D02*
X134250000Y-87060800D01*
X133068750Y-87694550D02*
X133856250Y-87694550D01*
X133462500Y-88088300D02*
X133462500Y-87300800D01*
%TO.C,U1*%
X151667600Y-87755000D02*
X151667600Y-88705000D01*
X151667600Y-98155000D02*
X151667600Y-97205000D01*
X153032600Y-87755000D02*
X151667600Y-87755000D01*
X153032600Y-98155000D02*
X151667600Y-98155000D01*
X148842600Y-88745000D02*
X148502600Y-88275000D01*
X149182600Y-88275000D01*
X148842600Y-88745000D01*
G36*
X148842600Y-88745000D02*
G01*
X148502600Y-88275000D01*
X149182600Y-88275000D01*
X148842600Y-88745000D01*
G37*
%TO.C,R1*%
X163211241Y-108160000D02*
X162903959Y-108160000D01*
X163211241Y-107400000D02*
X162903959Y-107400000D01*
%TO.C,L1*%
X137867600Y-93115000D02*
X137867600Y-96115000D01*
X134867600Y-93115000D02*
X137867600Y-93115000D01*
X137487600Y-93495000D02*
X124747600Y-93495000D01*
X137487600Y-93495000D02*
X137487600Y-96825000D01*
X124747600Y-93495000D02*
X124747600Y-96825000D01*
X137487600Y-99475000D02*
X137487600Y-100255000D01*
X124747600Y-99475000D02*
X124747600Y-100255000D01*
X137487600Y-102905000D02*
X137487600Y-106235000D01*
X124747600Y-102905000D02*
X124747600Y-106235000D01*
X137487600Y-106235000D02*
X124747600Y-106235000D01*
%TO.C,J2*%
X127947600Y-113060000D02*
X138187600Y-113060000D01*
X127947600Y-120680000D02*
X138187600Y-120680000D01*
X127947600Y-121780000D02*
X138187600Y-121780000D01*
X127947600Y-122300000D02*
X127947600Y-113060000D01*
X130267600Y-122300000D02*
X127947600Y-122300000D01*
X138187600Y-113060000D02*
X138187600Y-122300000D01*
X138187600Y-122300000D02*
X130867600Y-122300000D01*
X131007600Y-122910000D02*
X130127600Y-122910000D01*
X130567600Y-122300000D01*
X131007600Y-122910000D01*
G36*
X131007600Y-122910000D02*
G01*
X130127600Y-122910000D01*
X130567600Y-122300000D01*
X131007600Y-122910000D01*
G37*
%TO.C,J1*%
X159890000Y-113453200D02*
X170130000Y-113453200D01*
X159890000Y-121073200D02*
X170130000Y-121073200D01*
X159890000Y-122173200D02*
X170130000Y-122173200D01*
X159890000Y-122693200D02*
X159890000Y-113453200D01*
X162210000Y-122693200D02*
X159890000Y-122693200D01*
X170130000Y-113453200D02*
X170130000Y-122693200D01*
X170130000Y-122693200D02*
X162810000Y-122693200D01*
X162950000Y-123303200D02*
X162070000Y-123303200D01*
X162510000Y-122693200D01*
X162950000Y-123303200D01*
G36*
X162950000Y-123303200D02*
G01*
X162070000Y-123303200D01*
X162510000Y-122693200D01*
X162950000Y-123303200D01*
G37*
%TO.C,D2*%
X168927600Y-103482500D02*
X168927600Y-105002500D01*
X168877600Y-103482500D02*
X168927600Y-103482500D01*
X166977600Y-103482500D02*
X167757600Y-103482500D01*
X165807600Y-103482500D02*
X165857600Y-103482500D01*
X168927600Y-105002500D02*
X167927600Y-105002500D01*
X166807600Y-105002500D02*
X165807600Y-105002500D01*
X165807600Y-105002500D02*
X165807600Y-103482500D01*
X167747600Y-102942500D02*
X167417600Y-103182500D01*
X167417600Y-102702500D01*
X167747600Y-102942500D01*
G36*
X167747600Y-102942500D02*
G01*
X167417600Y-103182500D01*
X167417600Y-102702500D01*
X167747600Y-102942500D01*
G37*
%TO.C,D1*%
X140217600Y-92990000D02*
X143517600Y-92990000D01*
X140217600Y-92990000D02*
X140217600Y-87480000D01*
X143517600Y-92990000D02*
X143517600Y-87480000D01*
%TD*%
M02*
